<svg id="Layer_1" data-name="Layer 1" xmlns="http://www.w3.org/2000/svg" viewBox="0 0 138 59.33"><defs><style>.cls-1{fill:#fff;}.cls-2{fill:#edaa00;}</style></defs><title>Artboard 1</title><polygon class="cls-1" points="73.92 29.8 63.03 29.8 63.03 21.16 61.03 21.16 61.03 40.28 63.03 40.28 63.03 31.61 73.92 31.61 73.92 40.28 75.92 40.28 75.92 21.16 73.92 21.16 73.92 29.8"/><path class="cls-1" d="M88.66,20.83a9.65,9.65,0,0,0-9.74,9.77,9.74,9.74,0,1,0,19.48,0A9.65,9.65,0,0,0,88.66,20.83Zm0,17.92A7.83,7.83,0,0,1,81,30.6a7.67,7.67,0,1,1,15.33,0A7.83,7.83,0,0,1,88.66,38.75Z"/><path class="cls-1" d="M108.58,21.15h-6.63V40.28h2V32.82h4.64a5.59,5.59,0,0,0,5.93-5.87A5.55,5.55,0,0,0,108.58,21.15ZM103.94,23h4.42a3.75,3.75,0,0,1,4.1,4A3.8,3.8,0,0,1,108.34,31h-4.39Z"/><polygon class="cls-1" points="128.56 22.96 128.56 21.16 118.11 21.16 118.11 40.28 128.56 40.28 128.56 38.48 120.1 38.48 120.1 31.55 128.56 31.55 128.56 29.75 120.1 29.75 120.1 22.96 128.56 22.96"/><path class="cls-2" d="M30.27,14.86h1a.3.3,0,0,0,.3-.29L32,6.77a.3.3,0,0,0-.08-.22.3.3,0,0,0-.22-.09H29.91a.3.3,0,0,0-.3.31l.35,7.8A.3.3,0,0,0,30.27,14.86Z"/><path class="cls-2" d="M31.3,44h-1a.3.3,0,0,0-.3.29l-.35,7.8a.3.3,0,0,0,.08.22.3.3,0,0,0,.22.09h1.74a.3.3,0,0,0,.3-.31l-.35-7.8A.3.3,0,0,0,31.3,44Z"/><path class="cls-2" d="M19.69,19.51a.3.3,0,0,0,.41,0l.73-.73a.3.3,0,0,0,0-.41l-5.27-5.77a.3.3,0,0,0-.22-.1.3.3,0,0,0-.21.09l-1.23,1.23a.31.31,0,0,0-.09.22.3.3,0,0,0,.1.21Z"/><path class="cls-2" d="M41.88,39.39a.31.31,0,0,0-.42,0l-.73.73a.3.3,0,0,0,0,.41L46,46.31a.29.29,0,0,0,.22.1h0a.3.3,0,0,0,.21-.09l1.23-1.23a.3.3,0,0,0,.09-.22.31.31,0,0,0-.1-.22Zm4.33,7Z"/><path class="cls-2" d="M16.2,30v-1a.3.3,0,0,0-.29-.3l-7.82-.35a.3.3,0,0,0-.3.3v1.74a.31.31,0,0,0,.09.22.3.3,0,0,0,.2.08h0l7.8-.35A.3.3,0,0,0,16.2,30Zm-8.1.59h0Z"/><path class="cls-2" d="M53.68,28.36a.31.31,0,0,0-.22-.08h0l-7.8.35a.3.3,0,0,0-.29.3v1a.3.3,0,0,0,.29.3l7.8.35h0a.3.3,0,0,0,.2-.08.31.31,0,0,0,.09-.22V28.58A.3.3,0,0,0,53.68,28.36Zm-.21,2.19h0Z"/><path class="cls-2" d="M20.1,39.4a.31.31,0,0,0-.41,0l-5.77,5.27a.3.3,0,0,0-.1.21.3.3,0,0,0,.09.22l1.23,1.23a.3.3,0,0,0,.21.09h0a.3.3,0,0,0,.22-.1l5.27-5.77a.3.3,0,0,0,0-.41Zm-4.75,6.95Z"/><path class="cls-2" d="M41.47,19.5a.3.3,0,0,0,.41,0l5.77-5.27a.3.3,0,0,0,0-.43l-1.23-1.23a.3.3,0,0,0-.22-.09h0a.3.3,0,0,0-.22.1l-5.27,5.77a.3.3,0,0,0,0,.41Z"/><path class="cls-2" d="M37.45,38a11.46,11.46,0,0,1-5.57,1.5c-4.43,0-9.72-3.66-9.72-9.23a4.8,4.8,0,0,1,4.9-4.88,6.33,6.33,0,0,1,4.52,1.69L30.45,28a.26.26,0,0,0,.08.45l5.91,1.92h.09a.26.26,0,0,0,.26-.26.25.25,0,0,0,0-.1L36.13,24a.26.26,0,0,0-.16-.21.26.26,0,0,0-.26,0l-1.17.94a10,10,0,0,0-6.92-3.07,7.92,7.92,0,0,0-8,8,11.2,11.2,0,0,0,11.2,11,11.4,11.4,0,0,0,6.87-2.36c.25-.19.25-.26.21-.31S37.77,37.85,37.45,38Z"/><path class="cls-2" d="M30.78,18.28a11.4,11.4,0,0,0-6.87,2.36c-.25.19-.25.26-.21.31s.1.1.42-.07a11.46,11.46,0,0,1,5.57-1.5c4.43,0,9.72,3.66,9.72,9.23a4.8,4.8,0,0,1-4.9,4.88A6.33,6.33,0,0,1,30,31.8l1.13-.91a.26.26,0,0,0-.08-.45l-5.91-1.92a.26.26,0,0,0-.34.27L25.44,35a.26.26,0,0,0,.16.21l.1,0a.26.26,0,0,0,.16-.06L27,34.18A10,10,0,0,0,34,37.25a7.92,7.92,0,0,0,8-8A11.2,11.2,0,0,0,30.78,18.28Z"/><path class="cls-2" d="M65.79,49.6a3,3,0,0,1-2,.86,2.48,2.48,0,0,1-2.44-2.61,2.4,2.4,0,0,1,2.43-2.52,3.06,3.06,0,0,1,1.91.72l.11.1.62-.93-.07-.07a3.66,3.66,0,0,0-2.61-1A3.57,3.57,0,0,0,60,47.86a3.62,3.62,0,0,0,3.66,3.74,3.8,3.8,0,0,0,2.78-1.14l.07-.08-.67-.9Z"/><path class="cls-2" d="M73.26,44.2a3.63,3.63,0,0,0-3.68,3.66,3.68,3.68,0,1,0,7.36,0A3.63,3.63,0,0,0,73.26,44.2Zm2.42,3.66a2.44,2.44,0,1,1-4.86,0,2.43,2.43,0,1,1,4.86,0Z"/><path class="cls-2" d="M85.5,48.94c0,.13,0,.3,0,.45-.1-.18-.22-.37-.32-.52l-3.08-4.5,0-.05H80.93v7.17h1.22V46.87c0-.14,0-.3,0-.46.1.18.22.37.32.53l3.13,4.54h1.14V44.32H85.5Z"/><path class="cls-2" d="M95.31,48.85h1.13v.83a2.71,2.71,0,0,1-1.84.79,2.43,2.43,0,0,1-2.42-2.59,2.4,2.4,0,0,1,2.48-2.54,3.09,3.09,0,0,1,1.87.65l.11.09.63-.93-.08-.07a3.86,3.86,0,0,0-2.61-.87,3.59,3.59,0,0,0-3.66,3.69,3.54,3.54,0,0,0,3.53,3.71,3.19,3.19,0,0,0,2-.69v.57h1.1V47.76H95.31Z"/><path class="cls-2" d="M104.7,44.2A3.63,3.63,0,0,0,101,47.85a3.68,3.68,0,1,0,7.36,0A3.63,3.63,0,0,0,104.7,44.2Zm2.42,3.66a2.44,2.44,0,1,1-4.86,0,2.43,2.43,0,1,1,4.86,0Z"/><path class="cls-2" d="M117.17,47.34c-.71-.3-1.32-.55-1.32-1.11a1,1,0,0,1,1.13-.88,2.33,2.33,0,0,1,1.44.56l.12.11.56-1-.06-.07A2.94,2.94,0,0,0,117,44.2a2.17,2.17,0,0,0-2.36,2.06c0,1.24,1,1.7,2,2.1.74.32,1.38.6,1.38,1.21s-.54.89-1.07.89a2.63,2.63,0,0,1-1.68-.71l-.1-.1-.7.93.07.08a3.34,3.34,0,0,0,2.39,1,2.11,2.11,0,0,0,2.32-2.08C119.2,48.2,118.07,47.72,117.17,47.34Z"/><polygon class="cls-2" points="119.9 51.49 121.15 51.49 121.15 50.86 121.15 50.23 119.9 50.23 119.9 50.86 119.9 51.49"/><path class="cls-2" d="M125.23,44.32l-2.58,7.17h1.27l.69-2H127l.7,2H129l-2.58-7.17Zm.59,1.54c0,.19.11.39.16.55l.71,2h-1.75l.72-2C125.71,46.26,125.77,46,125.82,45.86Z"/><polygon class="cls-2" points="129.91 50.23 129.91 50.86 129.91 51.49 131.16 51.49 131.16 50.86 131.16 50.23 129.91 50.23"/></svg>